<svg xmlns="http://www.w3.org/2000/svg"  viewBox="0 0 120 120" width="100px" height="100px" baseProfile="basic"><ellipse cx="60" cy="63.5" opacity=".35" rx="48" ry="48.5"/><ellipse cx="60" cy="59.5" fill="#ff1200" rx="48" ry="48.5"/><ellipse cx="60" cy="59.5" fill="#ff1200" rx="48" ry="48.5"/><path d="M64,58H44v8h11.471c-1.517,5.191-6.296,9-11.971,9C36.607,75,31,69.393,31,62.5S36.607,50,43.5,50 c3.055,0,5.996,1.113,8.28,3.135l5.302-5.99C53.333,43.827,48.51,42,43.5,42C32.196,42,23,51.196,23,62.5S32.196,83,43.5,83 c11.12,0,20.18-8.906,20.471-19.957L64,63V58z" opacity=".35"/><path fill="#fff" d="M64,55H44v8h11.471c-1.517,5.191-6.296,9-11.971,9C36.607,72,31,66.393,31,59.5S36.607,47,43.5,47 c3.055,0,5.996,1.113,8.28,3.135l5.302-5.99C53.333,40.827,48.51,39,43.5,39C32.196,39,23,48.196,23,59.5S32.196,80,43.5,80 c11.12,0,20.18-8.906,20.471-19.957L64,60V55z"/><rect width="28" height="8" x="70" y="58" opacity=".35" transform="rotate(90 84 62)"/><rect width="28" height="8" x="70" y="55" fill="#fff" transform="rotate(90 84 59)"/><rect width="28" height="8" x="70" y="58" opacity=".35"/><rect width="28" height="8" x="70" y="55" fill="#fff"/></svg>